<mxfile host="app.diagrams.net" modified="2022-11-20T12:19:03.500Z" agent="5.0 (Windows NT 10.0; Win64; x64) AppleWebKit/537.36 (KHTML, like Gecko) Chrome/105.0.0.0 Safari/537.36 Edg/105.0.1343.33" etag="3oRt8wExUW140aJE169r" version="20.5.3" type="github">
  <diagram id="HOTYa_IRgpQ6V8Y0P6qF" name="第 1 页">
    <mxGraphModel dx="2067" dy="689" grid="1" gridSize="10" guides="1" tooltips="1" connect="1" arrows="1" fold="1" page="1" pageScale="1" pageWidth="827" pageHeight="1169" math="0" shadow="0">
      <root>
        <mxCell id="0" />
        <mxCell id="1" parent="0" />
        <mxCell id="Lm5TxfBAUC9yKeqR1tW2-134" value="" style="rounded=0;whiteSpace=wrap;html=1;labelBackgroundColor=#FFFFFF;labelBorderColor=default;fillStyle=auto;strokeWidth=1;fontFamily=Helvetica;fontSize=12;fillColor=#FFFFFF;" parent="1" vertex="1">
          <mxGeometry x="560" y="415" width="50" height="300" as="geometry" />
        </mxCell>
        <mxCell id="Lm5TxfBAUC9yKeqR1tW2-133" value="" style="rounded=0;whiteSpace=wrap;html=1;labelBackgroundColor=#FFFFFF;labelBorderColor=default;fillStyle=auto;strokeWidth=1;fontFamily=Helvetica;fontSize=12;fillColor=#FFFFFF;" parent="1" vertex="1">
          <mxGeometry x="640" y="380" width="50" height="290" as="geometry" />
        </mxCell>
        <mxCell id="Lm5TxfBAUC9yKeqR1tW2-1" value="" style="rounded=0;whiteSpace=wrap;html=1;" parent="1" vertex="1">
          <mxGeometry x="280" y="100" width="90" height="250" as="geometry" />
        </mxCell>
        <mxCell id="Lm5TxfBAUC9yKeqR1tW2-3" value="BERT" style="rounded=0;whiteSpace=wrap;html=1;" parent="1" vertex="1">
          <mxGeometry x="302" y="110" width="46" height="60" as="geometry" />
        </mxCell>
        <mxCell id="J7ziMkjD22U9pZXVT6Ec-13" style="edgeStyle=none;rounded=0;orthogonalLoop=1;jettySize=auto;html=1;exitX=1;exitY=0.5;exitDx=0;exitDy=0;startArrow=none;startFill=0;endArrow=classic;endFill=1;strokeColor=none;" edge="1" parent="1" source="Lm5TxfBAUC9yKeqR1tW2-6" target="J7ziMkjD22U9pZXVT6Ec-10">
          <mxGeometry relative="1" as="geometry" />
        </mxCell>
        <mxCell id="J7ziMkjD22U9pZXVT6Ec-14" style="edgeStyle=none;rounded=0;orthogonalLoop=1;jettySize=auto;html=1;exitX=1;exitY=0.5;exitDx=0;exitDy=0;entryX=0;entryY=0.5;entryDx=0;entryDy=0;startArrow=none;startFill=0;endArrow=classic;endFill=1;" edge="1" parent="1" source="Lm5TxfBAUC9yKeqR1tW2-6" target="J7ziMkjD22U9pZXVT6Ec-10">
          <mxGeometry relative="1" as="geometry" />
        </mxCell>
        <mxCell id="Lm5TxfBAUC9yKeqR1tW2-6" value="BERT" style="rounded=0;whiteSpace=wrap;html=1;" parent="1" vertex="1">
          <mxGeometry x="302" y="190" width="46" height="60" as="geometry" />
        </mxCell>
        <mxCell id="Lm5TxfBAUC9yKeqR1tW2-7" value="BERT" style="rounded=0;whiteSpace=wrap;html=1;" parent="1" vertex="1">
          <mxGeometry x="302" y="270" width="46" height="60" as="geometry" />
        </mxCell>
        <mxCell id="Lm5TxfBAUC9yKeqR1tW2-13" style="edgeStyle=orthogonalEdgeStyle;rounded=0;orthogonalLoop=1;jettySize=auto;html=1;exitX=1;exitY=0.5;exitDx=0;exitDy=0;fontFamily=Helvetica;fontSize=12;startArrow=none;" parent="1" source="Lm5TxfBAUC9yKeqR1tW2-16" target="Lm5TxfBAUC9yKeqR1tW2-3" edge="1">
          <mxGeometry relative="1" as="geometry" />
        </mxCell>
        <mxCell id="Lm5TxfBAUC9yKeqR1tW2-8" value="embedding&amp;nbsp; (x&lt;sub&gt;1&lt;/sub&gt;+table)" style="rounded=0;whiteSpace=wrap;html=1;" parent="1" vertex="1">
          <mxGeometry x="100" y="125" width="90" height="30" as="geometry" />
        </mxCell>
        <mxCell id="Lm5TxfBAUC9yKeqR1tW2-14" style="edgeStyle=orthogonalEdgeStyle;rounded=0;orthogonalLoop=1;jettySize=auto;html=1;exitX=1;exitY=0.5;exitDx=0;exitDy=0;fontFamily=Helvetica;fontSize=12;startArrow=none;" parent="1" source="Lm5TxfBAUC9yKeqR1tW2-18" target="Lm5TxfBAUC9yKeqR1tW2-6" edge="1">
          <mxGeometry relative="1" as="geometry" />
        </mxCell>
        <mxCell id="Lm5TxfBAUC9yKeqR1tW2-11" value="embedding&amp;nbsp; (x&lt;sub&gt;2&lt;/sub&gt;+table)" style="rounded=0;whiteSpace=wrap;html=1;" parent="1" vertex="1">
          <mxGeometry x="100" y="205" width="90" height="30" as="geometry" />
        </mxCell>
        <mxCell id="Lm5TxfBAUC9yKeqR1tW2-12" value="embedding&amp;nbsp; (x&lt;sub&gt;i&lt;/sub&gt;+table)" style="rounded=0;whiteSpace=wrap;html=1;" parent="1" vertex="1">
          <mxGeometry x="100" y="285" width="90" height="30" as="geometry" />
        </mxCell>
        <mxCell id="Lm5TxfBAUC9yKeqR1tW2-16" value="&lt;font style=&quot;font-size: 15px;&quot;&gt;+&lt;/font&gt;" style="ellipse;whiteSpace=wrap;html=1;aspect=fixed;fontFamily=Helvetica;fontSize=12;" parent="1" vertex="1">
          <mxGeometry x="220" y="127.5" width="25" height="25" as="geometry" />
        </mxCell>
        <mxCell id="Lm5TxfBAUC9yKeqR1tW2-17" value="" style="edgeStyle=orthogonalEdgeStyle;rounded=0;orthogonalLoop=1;jettySize=auto;html=1;exitX=1;exitY=0.5;exitDx=0;exitDy=0;fontFamily=Helvetica;fontSize=12;endArrow=none;" parent="1" source="Lm5TxfBAUC9yKeqR1tW2-8" target="Lm5TxfBAUC9yKeqR1tW2-16" edge="1">
          <mxGeometry relative="1" as="geometry">
            <mxPoint x="190" y="140" as="sourcePoint" />
            <mxPoint x="302" y="140" as="targetPoint" />
          </mxGeometry>
        </mxCell>
        <mxCell id="Lm5TxfBAUC9yKeqR1tW2-18" value="&lt;font style=&quot;font-size: 15px;&quot;&gt;+&lt;/font&gt;" style="ellipse;whiteSpace=wrap;html=1;aspect=fixed;fontFamily=Helvetica;fontSize=12;" parent="1" vertex="1">
          <mxGeometry x="220" y="207.5" width="25" height="25" as="geometry" />
        </mxCell>
        <mxCell id="Lm5TxfBAUC9yKeqR1tW2-19" value="" style="edgeStyle=orthogonalEdgeStyle;rounded=0;orthogonalLoop=1;jettySize=auto;html=1;exitX=1;exitY=0.5;exitDx=0;exitDy=0;fontFamily=Helvetica;fontSize=12;endArrow=none;" parent="1" source="Lm5TxfBAUC9yKeqR1tW2-11" target="Lm5TxfBAUC9yKeqR1tW2-18" edge="1">
          <mxGeometry relative="1" as="geometry">
            <mxPoint x="190" y="220" as="sourcePoint" />
            <mxPoint x="302" y="220" as="targetPoint" />
          </mxGeometry>
        </mxCell>
        <mxCell id="Lm5TxfBAUC9yKeqR1tW2-28" style="edgeStyle=orthogonalEdgeStyle;rounded=0;orthogonalLoop=1;jettySize=auto;html=1;exitX=1;exitY=0.5;exitDx=0;exitDy=0;fontFamily=Helvetica;fontSize=15;" parent="1" source="Lm5TxfBAUC9yKeqR1tW2-20" target="Lm5TxfBAUC9yKeqR1tW2-7" edge="1">
          <mxGeometry relative="1" as="geometry" />
        </mxCell>
        <mxCell id="Lm5TxfBAUC9yKeqR1tW2-20" value="&lt;font style=&quot;font-size: 15px;&quot;&gt;+&lt;/font&gt;" style="ellipse;whiteSpace=wrap;html=1;aspect=fixed;fontFamily=Helvetica;fontSize=12;" parent="1" vertex="1">
          <mxGeometry x="220" y="287.5" width="25" height="25" as="geometry" />
        </mxCell>
        <mxCell id="Lm5TxfBAUC9yKeqR1tW2-21" value="" style="edgeStyle=orthogonalEdgeStyle;rounded=0;orthogonalLoop=1;jettySize=auto;html=1;exitX=1;exitY=0.5;exitDx=0;exitDy=0;fontFamily=Helvetica;fontSize=12;endArrow=none;" parent="1" source="Lm5TxfBAUC9yKeqR1tW2-12" target="Lm5TxfBAUC9yKeqR1tW2-20" edge="1">
          <mxGeometry relative="1" as="geometry">
            <mxPoint x="200" y="395" as="sourcePoint" />
            <mxPoint x="302" y="395" as="targetPoint" />
          </mxGeometry>
        </mxCell>
        <mxCell id="Lm5TxfBAUC9yKeqR1tW2-29" value="" style="rounded=0;whiteSpace=wrap;html=1;" parent="1" vertex="1">
          <mxGeometry x="280" y="390" width="90" height="340" as="geometry" />
        </mxCell>
        <mxCell id="Lm5TxfBAUC9yKeqR1tW2-62" style="edgeStyle=orthogonalEdgeStyle;rounded=0;orthogonalLoop=1;jettySize=auto;html=1;exitX=1;exitY=0.5;exitDx=0;exitDy=0;fontFamily=Helvetica;fontSize=12;startArrow=none;" parent="1" source="Lm5TxfBAUC9yKeqR1tW2-83" edge="1">
          <mxGeometry relative="1" as="geometry">
            <mxPoint x="560" y="430" as="targetPoint" />
          </mxGeometry>
        </mxCell>
        <mxCell id="Lm5TxfBAUC9yKeqR1tW2-81" style="edgeStyle=orthogonalEdgeStyle;rounded=0;orthogonalLoop=1;jettySize=auto;html=1;exitX=1;exitY=0;exitDx=0;exitDy=0;entryX=0;entryY=0.5;entryDx=0;entryDy=0;fontFamily=Helvetica;fontSize=12;" parent="1" source="Lm5TxfBAUC9yKeqR1tW2-31" target="Lm5TxfBAUC9yKeqR1tW2-72" edge="1">
          <mxGeometry relative="1" as="geometry">
            <Array as="points">
              <mxPoint x="348" y="405" />
            </Array>
          </mxGeometry>
        </mxCell>
        <mxCell id="Lm5TxfBAUC9yKeqR1tW2-85" style="edgeStyle=orthogonalEdgeStyle;rounded=0;orthogonalLoop=1;jettySize=auto;html=1;exitX=1;exitY=0.5;exitDx=0;exitDy=0;entryX=0;entryY=0.5;entryDx=0;entryDy=0;fontFamily=Helvetica;fontSize=12;" parent="1" source="Lm5TxfBAUC9yKeqR1tW2-31" target="Lm5TxfBAUC9yKeqR1tW2-83" edge="1">
          <mxGeometry relative="1" as="geometry" />
        </mxCell>
        <mxCell id="Lm5TxfBAUC9yKeqR1tW2-88" style="edgeStyle=orthogonalEdgeStyle;rounded=0;orthogonalLoop=1;jettySize=auto;html=1;exitX=1;exitY=1;exitDx=0;exitDy=0;entryX=0;entryY=0.5;entryDx=0;entryDy=0;fontFamily=Helvetica;fontSize=12;" parent="1" source="Lm5TxfBAUC9yKeqR1tW2-31" target="Lm5TxfBAUC9yKeqR1tW2-86" edge="1">
          <mxGeometry relative="1" as="geometry">
            <Array as="points">
              <mxPoint x="360" y="460" />
              <mxPoint x="360" y="460" />
            </Array>
          </mxGeometry>
        </mxCell>
        <mxCell id="Lm5TxfBAUC9yKeqR1tW2-31" value="BERT" style="rounded=0;whiteSpace=wrap;html=1;" parent="1" vertex="1">
          <mxGeometry x="302" y="400" width="46" height="60" as="geometry" />
        </mxCell>
        <mxCell id="Lm5TxfBAUC9yKeqR1tW2-33" value="BERT" style="rounded=0;whiteSpace=wrap;html=1;" parent="1" vertex="1">
          <mxGeometry x="302" y="525" width="46" height="60" as="geometry" />
        </mxCell>
        <mxCell id="Lm5TxfBAUC9yKeqR1tW2-35" value="BERT" style="rounded=0;whiteSpace=wrap;html=1;" parent="1" vertex="1">
          <mxGeometry x="302" y="640" width="46" height="60" as="geometry" />
        </mxCell>
        <mxCell id="Lm5TxfBAUC9yKeqR1tW2-51" style="edgeStyle=orthogonalEdgeStyle;rounded=0;orthogonalLoop=1;jettySize=auto;html=1;exitX=1;exitY=0.5;exitDx=0;exitDy=0;entryX=0;entryY=0.5;entryDx=0;entryDy=0;fontFamily=Helvetica;fontSize=15;" parent="1" source="Lm5TxfBAUC9yKeqR1tW2-37" target="Lm5TxfBAUC9yKeqR1tW2-31" edge="1">
          <mxGeometry relative="1" as="geometry" />
        </mxCell>
        <mxCell id="Lm5TxfBAUC9yKeqR1tW2-37" value="embedding&amp;nbsp; (x&lt;sub&gt;1&lt;/sub&gt;+table)" style="rounded=0;whiteSpace=wrap;html=1;" parent="1" vertex="1">
          <mxGeometry x="100" y="415" width="90" height="30" as="geometry" />
        </mxCell>
        <mxCell id="Lm5TxfBAUC9yKeqR1tW2-52" style="edgeStyle=orthogonalEdgeStyle;rounded=0;orthogonalLoop=1;jettySize=auto;html=1;exitX=1;exitY=0.5;exitDx=0;exitDy=0;entryX=0;entryY=0.5;entryDx=0;entryDy=0;fontFamily=Helvetica;fontSize=15;" parent="1" source="Lm5TxfBAUC9yKeqR1tW2-39" target="Lm5TxfBAUC9yKeqR1tW2-33" edge="1">
          <mxGeometry relative="1" as="geometry" />
        </mxCell>
        <mxCell id="Lm5TxfBAUC9yKeqR1tW2-39" value="embedding&amp;nbsp; (x&lt;sub&gt;2&lt;/sub&gt;+table)" style="rounded=0;whiteSpace=wrap;html=1;" parent="1" vertex="1">
          <mxGeometry x="100" y="540" width="90" height="30" as="geometry" />
        </mxCell>
        <mxCell id="Lm5TxfBAUC9yKeqR1tW2-53" style="edgeStyle=orthogonalEdgeStyle;rounded=0;orthogonalLoop=1;jettySize=auto;html=1;exitX=1;exitY=0.5;exitDx=0;exitDy=0;entryX=0;entryY=0.5;entryDx=0;entryDy=0;fontFamily=Helvetica;fontSize=15;" parent="1" source="Lm5TxfBAUC9yKeqR1tW2-40" target="Lm5TxfBAUC9yKeqR1tW2-35" edge="1">
          <mxGeometry relative="1" as="geometry" />
        </mxCell>
        <mxCell id="Lm5TxfBAUC9yKeqR1tW2-40" value="embedding&amp;nbsp; (x&lt;sub&gt;i&lt;/sub&gt;+table)" style="rounded=0;whiteSpace=wrap;html=1;" parent="1" vertex="1">
          <mxGeometry x="100" y="655" width="90" height="30" as="geometry" />
        </mxCell>
        <mxCell id="Lm5TxfBAUC9yKeqR1tW2-54" value="&lt;font style=&quot;font-size: 12px;&quot;&gt;Target sample&lt;br&gt;Class:POS&lt;/font&gt;" style="text;html=1;align=center;verticalAlign=middle;resizable=0;points=[];autosize=1;strokeColor=none;fillColor=none;fontSize=15;fontFamily=Helvetica;" parent="1" vertex="1">
          <mxGeometry x="-10" y="530" width="100" height="50" as="geometry" />
        </mxCell>
        <mxCell id="Lm5TxfBAUC9yKeqR1tW2-55" value="&lt;font style=&quot;font-size: 12px;&quot;&gt;Negative sample&lt;br&gt;Class:NEG&lt;/font&gt;" style="text;html=1;align=center;verticalAlign=middle;resizable=0;points=[];autosize=1;strokeColor=none;fillColor=none;fontSize=15;fontFamily=Helvetica;" parent="1" vertex="1">
          <mxGeometry x="-15" y="640" width="110" height="50" as="geometry" />
        </mxCell>
        <mxCell id="Lm5TxfBAUC9yKeqR1tW2-56" value="&lt;font style=&quot;font-size: 12px;&quot;&gt;Postive sample&lt;br&gt;Class:POS&lt;/font&gt;" style="text;html=1;align=center;verticalAlign=middle;resizable=0;points=[];autosize=1;strokeColor=none;fillColor=none;fontSize=15;fontFamily=Helvetica;" parent="1" vertex="1">
          <mxGeometry x="-15" y="405" width="100" height="50" as="geometry" />
        </mxCell>
        <mxCell id="Lm5TxfBAUC9yKeqR1tW2-57" value="&lt;font style=&quot;font-size: 12px;&quot;&gt;Target sample&lt;br&gt;Class:POS&lt;/font&gt;" style="text;html=1;align=center;verticalAlign=middle;resizable=0;points=[];autosize=1;strokeColor=none;fillColor=none;fontSize=15;fontFamily=Helvetica;" parent="1" vertex="1">
          <mxGeometry x="-10" y="200" width="100" height="50" as="geometry" />
        </mxCell>
        <mxCell id="Lm5TxfBAUC9yKeqR1tW2-58" value="&lt;font style=&quot;font-size: 12px;&quot;&gt;Postive sample&lt;br&gt;Class:POS&lt;/font&gt;" style="text;html=1;align=center;verticalAlign=middle;resizable=0;points=[];autosize=1;strokeColor=none;fillColor=none;fontSize=15;fontFamily=Helvetica;" parent="1" vertex="1">
          <mxGeometry x="-15" y="120" width="100" height="50" as="geometry" />
        </mxCell>
        <mxCell id="Lm5TxfBAUC9yKeqR1tW2-59" value="&lt;font style=&quot;font-size: 12px;&quot;&gt;Negative sample&lt;br&gt;Class:NEG&lt;/font&gt;" style="text;html=1;align=center;verticalAlign=middle;resizable=0;points=[];autosize=1;strokeColor=none;fillColor=none;fontSize=15;fontFamily=Helvetica;" parent="1" vertex="1">
          <mxGeometry x="-20" y="275" width="110" height="50" as="geometry" />
        </mxCell>
        <mxCell id="Lm5TxfBAUC9yKeqR1tW2-82" style="edgeStyle=orthogonalEdgeStyle;rounded=0;orthogonalLoop=1;jettySize=auto;html=1;exitX=1;exitY=0.5;exitDx=0;exitDy=0;fontFamily=Helvetica;fontSize=12;" parent="1" source="Lm5TxfBAUC9yKeqR1tW2-72" edge="1">
          <mxGeometry relative="1" as="geometry">
            <mxPoint x="639.9999999999995" y="405" as="targetPoint" />
          </mxGeometry>
        </mxCell>
        <mxCell id="Lm5TxfBAUC9yKeqR1tW2-72" value="" style="rounded=0;whiteSpace=wrap;html=1;labelBackgroundColor=#FFFFFF;strokeWidth=1;fontFamily=Helvetica;fontSize=12;fillStyle=hatch;fillColor=#000000;" parent="1" vertex="1">
          <mxGeometry x="440" y="395" width="60" height="20" as="geometry" />
        </mxCell>
        <mxCell id="Lm5TxfBAUC9yKeqR1tW2-83" value="" style="rounded=0;whiteSpace=wrap;html=1;labelBackgroundColor=#FFFFFF;strokeWidth=1;fontFamily=Helvetica;fontSize=12;fillStyle=dashed;fillColor=#000000;" parent="1" vertex="1">
          <mxGeometry x="440" y="420" width="60" height="20" as="geometry" />
        </mxCell>
        <mxCell id="Lm5TxfBAUC9yKeqR1tW2-86" value="" style="rounded=0;whiteSpace=wrap;html=1;labelBackgroundColor=#FFFFFF;strokeWidth=1;fontFamily=Helvetica;fontSize=12;fillStyle=dashed;fillColor=#000000;" parent="1" vertex="1">
          <mxGeometry x="440" y="450" width="60" height="20" as="geometry" />
        </mxCell>
        <mxCell id="Lm5TxfBAUC9yKeqR1tW2-97" style="edgeStyle=orthogonalEdgeStyle;rounded=0;orthogonalLoop=1;jettySize=auto;html=1;exitX=1;exitY=0.5;exitDx=0;exitDy=0;entryX=0;entryY=0.5;entryDx=0;entryDy=0;fontFamily=Helvetica;fontSize=12;" parent="1" target="Lm5TxfBAUC9yKeqR1tW2-98" edge="1">
          <mxGeometry relative="1" as="geometry">
            <mxPoint x="348" y="530" as="sourcePoint" />
          </mxGeometry>
        </mxCell>
        <mxCell id="Lm5TxfBAUC9yKeqR1tW2-129" style="edgeStyle=orthogonalEdgeStyle;rounded=0;orthogonalLoop=1;jettySize=auto;html=1;exitX=1;exitY=0.5;exitDx=0;exitDy=0;fontFamily=Helvetica;fontSize=12;" parent="1" source="Lm5TxfBAUC9yKeqR1tW2-98" edge="1">
          <mxGeometry relative="1" as="geometry">
            <mxPoint x="560" y="530" as="targetPoint" />
          </mxGeometry>
        </mxCell>
        <mxCell id="Lm5TxfBAUC9yKeqR1tW2-98" value="" style="rounded=0;whiteSpace=wrap;html=1;labelBackgroundColor=#FFFFFF;strokeWidth=1;fontFamily=Helvetica;fontSize=12;fillStyle=dashed;fillColor=#000000;" parent="1" vertex="1">
          <mxGeometry x="440" y="520" width="60" height="20" as="geometry" />
        </mxCell>
        <mxCell id="Lm5TxfBAUC9yKeqR1tW2-99" value="&lt;span style=&quot;font-size: 10.4167px;&quot;&gt;=&lt;/span&gt;" style="text;html=1;align=center;verticalAlign=middle;resizable=0;points=[];autosize=1;strokeColor=none;fillColor=none;fontSize=15;fontFamily=Helvetica;labelBorderColor=none;" parent="1" vertex="1">
          <mxGeometry x="570" y="515" width="30" height="30" as="geometry" />
        </mxCell>
        <mxCell id="Lm5TxfBAUC9yKeqR1tW2-100" style="edgeStyle=orthogonalEdgeStyle;rounded=0;orthogonalLoop=1;jettySize=auto;html=1;exitX=1;exitY=0;exitDx=0;exitDy=0;entryX=0;entryY=0.5;entryDx=0;entryDy=0;fontFamily=Helvetica;fontSize=12;" parent="1" target="Lm5TxfBAUC9yKeqR1tW2-103" edge="1">
          <mxGeometry relative="1" as="geometry">
            <mxPoint x="348" y="549.9999999999999" as="sourcePoint" />
            <Array as="points">
              <mxPoint x="348" y="555" />
            </Array>
          </mxGeometry>
        </mxCell>
        <mxCell id="Lm5TxfBAUC9yKeqR1tW2-103" value="" style="rounded=0;whiteSpace=wrap;html=1;labelBackgroundColor=#FFFFFF;strokeWidth=1;fontFamily=Helvetica;fontSize=12;fillStyle=hatch;fillColor=#000000;" parent="1" vertex="1">
          <mxGeometry x="440" y="545" width="60" height="20" as="geometry" />
        </mxCell>
        <mxCell id="Lm5TxfBAUC9yKeqR1tW2-109" style="edgeStyle=orthogonalEdgeStyle;rounded=0;orthogonalLoop=1;jettySize=auto;html=1;exitX=1;exitY=0.5;exitDx=0;exitDy=0;entryX=0;entryY=0.5;entryDx=0;entryDy=0;fontFamily=Helvetica;fontSize=12;" parent="1" target="Lm5TxfBAUC9yKeqR1tW2-110" edge="1">
          <mxGeometry relative="1" as="geometry">
            <mxPoint x="348" y="585" as="sourcePoint" />
          </mxGeometry>
        </mxCell>
        <mxCell id="Lm5TxfBAUC9yKeqR1tW2-146" value="attract" style="edgeStyle=orthogonalEdgeStyle;rounded=0;orthogonalLoop=1;jettySize=auto;html=1;exitX=0.5;exitY=1;exitDx=0;exitDy=0;entryX=0.5;entryY=0;entryDx=0;entryDy=0;fontFamily=Helvetica;fontSize=12;endArrow=halfCircle;endFill=0;startArrow=halfCircle;startFill=0;" parent="1" source="Lm5TxfBAUC9yKeqR1tW2-138" target="Lm5TxfBAUC9yKeqR1tW2-141" edge="1">
          <mxGeometry relative="1" as="geometry" />
        </mxCell>
        <mxCell id="Lm5TxfBAUC9yKeqR1tW2-138" value="&lt;span style=&quot;font-size: 10.4167px;&quot;&gt;POS&lt;/span&gt;" style="rounded=0;whiteSpace=wrap;html=1;labelBackgroundColor=#FFFFFF;labelBorderColor=none;fillStyle=auto;strokeWidth=1;fontFamily=Helvetica;fontSize=12;fillColor=#FFFFFF;" parent="1" vertex="1">
          <mxGeometry x="565" y="420" width="40" height="20" as="geometry" />
        </mxCell>
        <mxCell id="Lm5TxfBAUC9yKeqR1tW2-132" style="edgeStyle=orthogonalEdgeStyle;rounded=0;orthogonalLoop=1;jettySize=auto;html=1;exitX=1;exitY=0.5;exitDx=0;exitDy=0;fontFamily=Helvetica;fontSize=12;" parent="1" source="Lm5TxfBAUC9yKeqR1tW2-110" edge="1">
          <mxGeometry relative="1" as="geometry">
            <mxPoint x="520" y="585" as="targetPoint" />
          </mxGeometry>
        </mxCell>
        <mxCell id="Lm5TxfBAUC9yKeqR1tW2-110" value="" style="rounded=0;whiteSpace=wrap;html=1;labelBackgroundColor=#FFFFFF;strokeWidth=1;fontFamily=Helvetica;fontSize=12;fillStyle=dashed;fillColor=#000000;" parent="1" vertex="1">
          <mxGeometry x="440" y="575" width="60" height="20" as="geometry" />
        </mxCell>
        <mxCell id="Lm5TxfBAUC9yKeqR1tW2-116" style="edgeStyle=orthogonalEdgeStyle;rounded=0;orthogonalLoop=1;jettySize=auto;html=1;exitX=1;exitY=0;exitDx=0;exitDy=0;entryX=0;entryY=0.5;entryDx=0;entryDy=0;fontFamily=Helvetica;fontSize=12;" parent="1" target="Lm5TxfBAUC9yKeqR1tW2-119" edge="1">
          <mxGeometry relative="1" as="geometry">
            <mxPoint x="348" y="639.9999999999999" as="sourcePoint" />
            <Array as="points">
              <mxPoint x="348" y="645" />
            </Array>
          </mxGeometry>
        </mxCell>
        <mxCell id="Lm5TxfBAUC9yKeqR1tW2-119" value="" style="rounded=0;whiteSpace=wrap;html=1;labelBackgroundColor=#FFFFFF;strokeWidth=1;fontFamily=Helvetica;fontSize=12;fillStyle=hatch;fillColor=#000000;" parent="1" vertex="1">
          <mxGeometry x="440" y="635" width="60" height="20" as="geometry" />
        </mxCell>
        <mxCell id="Lm5TxfBAUC9yKeqR1tW2-121" style="edgeStyle=orthogonalEdgeStyle;rounded=0;orthogonalLoop=1;jettySize=auto;html=1;exitX=1;exitY=0.5;exitDx=0;exitDy=0;entryX=0;entryY=0.5;entryDx=0;entryDy=0;fontFamily=Helvetica;fontSize=12;" parent="1" target="Lm5TxfBAUC9yKeqR1tW2-123" edge="1">
          <mxGeometry relative="1" as="geometry">
            <mxPoint x="348" y="670" as="sourcePoint" />
          </mxGeometry>
        </mxCell>
        <mxCell id="Lm5TxfBAUC9yKeqR1tW2-122" style="edgeStyle=orthogonalEdgeStyle;rounded=0;orthogonalLoop=1;jettySize=auto;html=1;exitX=1;exitY=1;exitDx=0;exitDy=0;entryX=0;entryY=0.5;entryDx=0;entryDy=0;fontFamily=Helvetica;fontSize=12;" parent="1" target="Lm5TxfBAUC9yKeqR1tW2-124" edge="1">
          <mxGeometry relative="1" as="geometry">
            <mxPoint x="348" y="700" as="sourcePoint" />
            <Array as="points">
              <mxPoint x="360" y="700" />
              <mxPoint x="360" y="700" />
            </Array>
          </mxGeometry>
        </mxCell>
        <mxCell id="Lm5TxfBAUC9yKeqR1tW2-123" value="" style="rounded=0;whiteSpace=wrap;html=1;labelBackgroundColor=#FFFFFF;strokeWidth=1;fontFamily=Helvetica;fontSize=12;fillStyle=dashed;fillColor=#000000;" parent="1" vertex="1">
          <mxGeometry x="440" y="660" width="60" height="20" as="geometry" />
        </mxCell>
        <mxCell id="Lm5TxfBAUC9yKeqR1tW2-127" style="edgeStyle=orthogonalEdgeStyle;rounded=0;orthogonalLoop=1;jettySize=auto;html=1;exitX=1;exitY=0.25;exitDx=0;exitDy=0;entryX=0.04;entryY=0.502;entryDx=0;entryDy=0;entryPerimeter=0;fontFamily=Helvetica;fontSize=12;" parent="1" source="Lm5TxfBAUC9yKeqR1tW2-124" edge="1">
          <mxGeometry relative="1" as="geometry">
            <mxPoint x="562" y="695.06" as="targetPoint" />
          </mxGeometry>
        </mxCell>
        <mxCell id="Lm5TxfBAUC9yKeqR1tW2-124" value="" style="rounded=0;whiteSpace=wrap;html=1;labelBackgroundColor=#FFFFFF;strokeWidth=1;fontFamily=Helvetica;fontSize=12;fillStyle=dashed;fillColor=#000000;" parent="1" vertex="1">
          <mxGeometry x="440" y="690" width="60" height="20" as="geometry" />
        </mxCell>
        <mxCell id="Lm5TxfBAUC9yKeqR1tW2-149" value="repel" style="edgeStyle=orthogonalEdgeStyle;rounded=0;orthogonalLoop=1;jettySize=auto;html=1;exitX=0.5;exitY=1;exitDx=0;exitDy=0;entryX=0.5;entryY=0;entryDx=0;entryDy=0;fontFamily=Helvetica;fontSize=12;startArrow=classic;startFill=1;endArrow=classic;endFill=1;" parent="1" source="Lm5TxfBAUC9yKeqR1tW2-140" target="Lm5TxfBAUC9yKeqR1tW2-143" edge="1">
          <mxGeometry relative="1" as="geometry" />
        </mxCell>
        <mxCell id="J7ziMkjD22U9pZXVT6Ec-5" style="rounded=0;orthogonalLoop=1;jettySize=auto;html=1;exitX=0;exitY=0.25;exitDx=0;exitDy=0;entryX=1;entryY=0.25;entryDx=0;entryDy=0;dashed=1;startArrow=halfCircle;startFill=0;endArrow=halfCircle;endFill=0;" edge="1" parent="1" source="Lm5TxfBAUC9yKeqR1tW2-140" target="Lm5TxfBAUC9yKeqR1tW2-141">
          <mxGeometry relative="1" as="geometry" />
        </mxCell>
        <mxCell id="Lm5TxfBAUC9yKeqR1tW2-140" value="&lt;span style=&quot;font-size: 10.4167px;&quot;&gt;POS&lt;/span&gt;" style="rounded=0;whiteSpace=wrap;html=1;labelBackgroundColor=#FFFFFF;labelBorderColor=none;fillStyle=auto;strokeWidth=1;fontFamily=Helvetica;fontSize=12;fillColor=#FFFFFF;" parent="1" vertex="1">
          <mxGeometry x="645" y="545" width="40" height="20" as="geometry" />
        </mxCell>
        <mxCell id="Lm5TxfBAUC9yKeqR1tW2-147" value="repel" style="edgeStyle=orthogonalEdgeStyle;rounded=0;orthogonalLoop=1;jettySize=auto;html=1;exitX=0.5;exitY=1;exitDx=0;exitDy=0;entryX=0.5;entryY=0;entryDx=0;entryDy=0;fontFamily=Helvetica;fontSize=12;startArrow=classic;startFill=1;endArrow=classic;endFill=1;" parent="1" source="Lm5TxfBAUC9yKeqR1tW2-141" target="Lm5TxfBAUC9yKeqR1tW2-145" edge="1">
          <mxGeometry relative="1" as="geometry" />
        </mxCell>
        <mxCell id="Lm5TxfBAUC9yKeqR1tW2-141" value="&lt;span style=&quot;font-size: 10.4167px;&quot;&gt;CLS&lt;/span&gt;" style="rounded=0;whiteSpace=wrap;html=1;labelBackgroundColor=#FFFFFF;labelBorderColor=none;fillStyle=auto;strokeWidth=1;fontFamily=Helvetica;fontSize=12;fillColor=#FFFFFF;" parent="1" vertex="1">
          <mxGeometry x="565" y="525" width="40" height="20" as="geometry" />
        </mxCell>
        <mxCell id="Lm5TxfBAUC9yKeqR1tW2-150" value="attract" style="edgeStyle=orthogonalEdgeStyle;rounded=0;orthogonalLoop=1;jettySize=auto;html=1;exitX=0.5;exitY=1;exitDx=0;exitDy=0;entryX=0.5;entryY=0;entryDx=0;entryDy=0;fontFamily=Helvetica;fontSize=12;startArrow=halfCircle;startFill=0;endArrow=halfCircle;endFill=0;" parent="1" source="Lm5TxfBAUC9yKeqR1tW2-142" target="Lm5TxfBAUC9yKeqR1tW2-140" edge="1">
          <mxGeometry relative="1" as="geometry" />
        </mxCell>
        <mxCell id="Lm5TxfBAUC9yKeqR1tW2-142" value="&lt;span style=&quot;font-size: 10.4167px;&quot;&gt;CLS&lt;/span&gt;" style="rounded=0;whiteSpace=wrap;html=1;labelBackgroundColor=#FFFFFF;labelBorderColor=none;fillStyle=auto;strokeWidth=1;fontFamily=Helvetica;fontSize=12;fillColor=#FFFFFF;" parent="1" vertex="1">
          <mxGeometry x="645" y="395" width="40" height="20" as="geometry" />
        </mxCell>
        <mxCell id="Lm5TxfBAUC9yKeqR1tW2-143" value="&lt;span style=&quot;font-size: 10.4167px;&quot;&gt;CLS&lt;/span&gt;" style="rounded=0;whiteSpace=wrap;html=1;labelBackgroundColor=#FFFFFF;labelBorderColor=none;fillStyle=auto;strokeWidth=1;fontFamily=Helvetica;fontSize=12;fillColor=#FFFFFF;" parent="1" vertex="1">
          <mxGeometry x="645" y="635" width="40" height="20" as="geometry" />
        </mxCell>
        <mxCell id="Lm5TxfBAUC9yKeqR1tW2-145" value="&lt;span style=&quot;font-size: 10.4167px;&quot;&gt;NEG&lt;/span&gt;" style="rounded=0;whiteSpace=wrap;html=1;labelBackgroundColor=#FFFFFF;labelBorderColor=none;fillStyle=auto;strokeWidth=1;fontFamily=Helvetica;fontSize=12;fillColor=#FFFFFF;" parent="1" vertex="1">
          <mxGeometry x="565" y="685" width="40" height="20" as="geometry" />
        </mxCell>
        <mxCell id="Lm5TxfBAUC9yKeqR1tW2-151" value="input feature&lt;br&gt;representation" style="text;html=1;align=center;verticalAlign=middle;resizable=0;points=[];autosize=1;strokeColor=none;fillColor=none;fontSize=12;fontFamily=Helvetica;" parent="1" vertex="1">
          <mxGeometry x="340" y="490" width="100" height="40" as="geometry" />
        </mxCell>
        <mxCell id="Lm5TxfBAUC9yKeqR1tW2-152" value="Classifier&lt;br&gt;representation" style="text;html=1;align=center;verticalAlign=middle;resizable=0;points=[];autosize=1;strokeColor=none;fillColor=none;fontSize=12;fontFamily=Helvetica;" parent="1" vertex="1">
          <mxGeometry x="330" y="580" width="100" height="40" as="geometry" />
        </mxCell>
        <mxCell id="Lm5TxfBAUC9yKeqR1tW2-131" style="edgeStyle=orthogonalEdgeStyle;rounded=0;orthogonalLoop=1;jettySize=auto;html=1;exitX=1;exitY=0.5;exitDx=0;exitDy=0;fontFamily=Helvetica;fontSize=12;" parent="1" source="Lm5TxfBAUC9yKeqR1tW2-103" edge="1">
          <mxGeometry relative="1" as="geometry">
            <mxPoint x="639.9999999999995" y="555" as="targetPoint" />
          </mxGeometry>
        </mxCell>
        <mxCell id="Lm5TxfBAUC9yKeqR1tW2-118" style="edgeStyle=orthogonalEdgeStyle;rounded=0;orthogonalLoop=1;jettySize=auto;html=1;exitX=1;exitY=0.5;exitDx=0;exitDy=0;fontFamily=Helvetica;fontSize=12;" parent="1" source="Lm5TxfBAUC9yKeqR1tW2-119" edge="1">
          <mxGeometry relative="1" as="geometry">
            <mxPoint x="639.9999999999995" y="644.9999999999998" as="targetPoint" />
          </mxGeometry>
        </mxCell>
        <mxCell id="J7ziMkjD22U9pZXVT6Ec-6" style="rounded=0;orthogonalLoop=1;jettySize=auto;html=1;exitX=1;exitY=0.5;exitDx=0;exitDy=0;entryX=0.75;entryY=1;entryDx=0;entryDy=0;startArrow=classic;startFill=1;dashed=1;" edge="1" parent="1" source="J7ziMkjD22U9pZXVT6Ec-1" target="Lm5TxfBAUC9yKeqR1tW2-140">
          <mxGeometry relative="1" as="geometry" />
        </mxCell>
        <mxCell id="J7ziMkjD22U9pZXVT6Ec-1" value="&lt;span style=&quot;font-size: 10.4167px;&quot;&gt;NEG&lt;/span&gt;" style="rounded=0;whiteSpace=wrap;html=1;labelBackgroundColor=#FFFFFF;labelBorderColor=none;fillStyle=auto;strokeWidth=1;fontFamily=Helvetica;fontSize=12;fillColor=#FFFFFF;" vertex="1" parent="1">
          <mxGeometry x="520" y="575" width="40" height="20" as="geometry" />
        </mxCell>
        <mxCell id="J7ziMkjD22U9pZXVT6Ec-23" style="edgeStyle=orthogonalEdgeStyle;rounded=0;orthogonalLoop=1;jettySize=auto;html=1;exitX=1;exitY=0.5;exitDx=0;exitDy=0;entryX=0;entryY=0.5;entryDx=0;entryDy=0;startArrow=none;startFill=0;endArrow=classic;endFill=1;" edge="1" parent="1" source="J7ziMkjD22U9pZXVT6Ec-10" target="J7ziMkjD22U9pZXVT6Ec-21">
          <mxGeometry relative="1" as="geometry" />
        </mxCell>
        <mxCell id="J7ziMkjD22U9pZXVT6Ec-10" value="" style="rounded=0;whiteSpace=wrap;html=1;labelBackgroundColor=#FFFFFF;strokeWidth=1;fontFamily=Helvetica;fontSize=12;fillStyle=hatch;fillColor=#000000;" vertex="1" parent="1">
          <mxGeometry x="440" y="210" width="60" height="20" as="geometry" />
        </mxCell>
        <mxCell id="J7ziMkjD22U9pZXVT6Ec-24" style="edgeStyle=orthogonalEdgeStyle;rounded=0;orthogonalLoop=1;jettySize=auto;html=1;exitX=0.5;exitY=0;exitDx=0;exitDy=0;entryX=0.5;entryY=0;entryDx=0;entryDy=0;startArrow=halfCircle;startFill=0;endArrow=halfCircle;endFill=0;" edge="1" parent="1" source="J7ziMkjD22U9pZXVT6Ec-21" target="Lm5TxfBAUC9yKeqR1tW2-142">
          <mxGeometry relative="1" as="geometry" />
        </mxCell>
        <mxCell id="J7ziMkjD22U9pZXVT6Ec-25" style="edgeStyle=orthogonalEdgeStyle;rounded=0;orthogonalLoop=1;jettySize=auto;html=1;exitX=0;exitY=1;exitDx=0;exitDy=0;entryX=0;entryY=0.75;entryDx=0;entryDy=0;startArrow=halfCircle;startFill=0;endArrow=halfCircle;endFill=0;" edge="1" parent="1" source="J7ziMkjD22U9pZXVT6Ec-21" target="Lm5TxfBAUC9yKeqR1tW2-141">
          <mxGeometry relative="1" as="geometry" />
        </mxCell>
        <mxCell id="J7ziMkjD22U9pZXVT6Ec-29" style="edgeStyle=orthogonalEdgeStyle;rounded=0;orthogonalLoop=1;jettySize=auto;html=1;exitX=1;exitY=0.25;exitDx=0;exitDy=0;entryX=1;entryY=0.5;entryDx=0;entryDy=0;startArrow=classic;startFill=1;endArrow=classic;endFill=1;" edge="1" parent="1" source="J7ziMkjD22U9pZXVT6Ec-21" target="Lm5TxfBAUC9yKeqR1tW2-143">
          <mxGeometry relative="1" as="geometry" />
        </mxCell>
        <mxCell id="J7ziMkjD22U9pZXVT6Ec-21" value="&lt;span style=&quot;font-size: 10.4167px;&quot;&gt;CLS&lt;/span&gt;" style="rounded=0;whiteSpace=wrap;html=1;labelBackgroundColor=#FFFFFF;labelBorderColor=none;fillStyle=auto;strokeWidth=1;fontFamily=Helvetica;fontSize=12;fillColor=#FFFFFF;" vertex="1" parent="1">
          <mxGeometry x="540" y="210" width="40" height="20" as="geometry" />
        </mxCell>
      </root>
    </mxGraphModel>
  </diagram>
</mxfile>
